<svg xmlns="http://www.w3.org/2000/svg" viewBox="0 0 26.13 26.13"><defs><style>.cls-1{fill:#1d1d1b;}</style></defs><g id="Layer_2" data-name="Layer 2"><g id="Layer_1-2" data-name="Layer 1"><path class="cls-1" d="M22.36,0H3.77A3.77,3.77,0,0,0,0,3.77V22.36a3.77,3.77,0,0,0,3.77,3.77h.56A3.39,3.39,0,0,1,7.71,22.9h1.8a10.28,10.28,0,0,0,1.77-5.78,9.18,9.18,0,0,0-.16-1.67,5,5,0,1,1,3.88,0,10.17,10.17,0,0,0-.15,1.67,10.28,10.28,0,0,0,1.77,5.78h1.8a3.39,3.39,0,0,1,3.38,3.23h.56a3.77,3.77,0,0,0,3.77-3.77V3.77A3.77,3.77,0,0,0,22.36,0Z"/></g></g></svg>